<svg width="512" height="512" viewBox="0 0 512 512" fill="none" xmlns="http://www.w3.org/2000/svg">
<g id="logo-tableau-svgrepo-com 1">
<path id="Vector" d="M242.69 340.3H269.31V267.7H336.31V241.88H269.31V169.28H242.69V241.88H176.54V267.7H242.69V340.3Z" fill="#9FCEEC"/>
<path id="Vector_2" d="M119.26 445.18H141.85V380.64H201.55V360.47H141.85V295.13H119.26V360.47H59.56V380.64H119.26V445.18Z" fill="#9FCEEC"/>
<path id="Vector_3" d="M370.15 212H392.74V147.5H453.24V128.13H392.74V62.79H370.15V128.13H310.45V147.5H370.15V212Z" fill="#9FCEEC"/>
<path id="Vector_4" d="M246.72 496H266.08V450H307.23V433.08H266.08V387.08H246.72V433.08H206.39V450H246.72V496Z" fill="#9FCEEC"/>
<path id="Vector_5" d="M120.07 212H141.07V146.69H201.58V128.13H141V62.79H120V128.13H59.56V146.69H120.07V212Z" fill="#9FCEEC"/>
<path id="Vector_6" d="M435.72 308.84H455.08V263.66H496V245.92H455.08V200.74H435.72V245.92H395.39V263.66H435.72V308.84Z" fill="#9FCEEC"/>
<path id="Vector_7" fill-rule="evenodd" clip-rule="evenodd" d="M370.15 445.18H392.74V380.64H453.24V360.47H392.74V295.13H370.15V360.47H310.45V380.64H370.15V445.18Z" fill="#9FCEEC"/>
<path id="Vector_8" d="M307 74.08V60.37H266.66V16H252.14V60.37H211.81V74.08H252.14V118.45H266.66V74.08H307ZM56.11 305.61H70.63V261.24H111V247.53H70.63V204H56.11V247.56H16V262.08L56.11 262V305.61Z" fill="#9FCEEC"/>
</g>
</svg>
